{
    "asset" : {
        "generator" : "Khronos glTF Blender I/O v3.2.40",
        "version" : "2.0"
    },
    "scene" : 0,
    "scenes" : [
        {
            "name" : "Scene",
            "nodes" : [
                26
            ]
        }
    ],
    "nodes" : [
        {
            "name" : "Bone_tail03",
            "rotation" : [
                1.257478220197659e-15,
                -1.4710456135074508e-15,
                2.980232594040899e-08,
                1
            ],
            "scale" : [
                0.9999999403953552,
                0.9999999403953552,
                0.9999999403953552
            ],
            "translation" : [
                -1.52587890625e-05,
                87.1480941772461,
                1.1368683772161603e-13
            ]
        },
        {
            "children" : [
                0
            ],
            "name" : "Bone_tail02",
            "rotation" : [
                -4.241919704384145e-09,
                -1.2362115775488292e-09,
                -0.1414051502943039,
                0.9899518489837646
            ],
            "scale" : [
                0.9999998807907104,
                0.9999998807907104,
                0.9999998807907104
            ],
            "translation" : [
                1.1444091796875e-05,
                80.85079956054688,
                -3.979039320256561e-13
            ]
        },
        {
            "children" : [
                1
            ],
            "name" : "Bone_tail01",
            "rotation" : [
                2.9751896946095258e-08,
                2.6470631908637188e-08,
                0.26320362091064453,
                0.9647403359413147
            ],
            "scale" : [
                1,
                1,
                0.9999999403953552
            ],
            "translation" : [
                -28.519638061523438,
                40.68976974487305,
                3.0078065265115583e-06
            ]
        },
        {
            "name" : "Bip001 L Toe0",
            "rotation" : [
                2.2237717445250382e-08,
                -0.9998927712440491,
                -1.0245651438367531e-08,
                0.014651218429207802
            ],
            "scale" : [
                0.9999999403953552,
                0.9999998807907104,
                0.9999998807907104
            ],
            "translation" : [
                -1.6093254089355469e-06,
                59.68208312988281,
                -4.507601261138916e-06
            ]
        },
        {
            "children" : [
                3
            ],
            "name" : "Bip001 L Foot",
            "rotation" : [
                0.7103688716888428,
                -0.6964471340179443,
                0.09751895070075989,
                0.028769496828317642
            ],
            "scale" : [
                0.9999997615814209,
                1,
                1
            ],
            "translation" : [
                -7.152557373046875e-07,
                34.05078887939453,
                2.771615982055664e-06
            ]
        },
        {
            "children" : [
                4
            ],
            "name" : "Bip001 L Calf",
            "rotation" : [
                -0.017546478658914566,
                0.08769194036722183,
                -0.287047803401947,
                0.9537325501441956
            ],
            "scale" : [
                1,
                1,
                0.9999998807907104
            ],
            "translation" : [
                -1.430511474609375e-06,
                54.714515686035156,
                1.3709068298339844e-06
            ]
        },
        {
            "children" : [
                5
            ],
            "name" : "Bip001 L Thigh",
            "rotation" : [
                0.05531461909413338,
                0.9949088096618652,
                -0.04020152986049652,
                0.07403135299682617
            ],
            "scale" : [
                0.9999999403953552,
                1,
                1
            ],
            "translation" : [
                -0.020610125735402107,
                31.386795043945312,
                54.29881286621094
            ]
        },
        {
            "name" : "Bip001 R Toe0",
            "rotation" : [
                1.6299896543614523e-08,
                0.9998927712440491,
                9.314226723233787e-09,
                0.014651210978627205
            ],
            "scale" : [
                0.9999999403953552,
                1,
                1
            ],
            "translation" : [
                -3.0994415283203125e-06,
                59.68207931518555,
                -5.811452865600586e-07
            ]
        },
        {
            "children" : [
                7
            ],
            "name" : "Bip001 R Foot",
            "rotation" : [
                -0.7103692889213562,
                0.6964471340179443,
                0.097515769302845,
                0.028767483308911324
            ],
            "scale" : [
                1,
                0.9999998807907104,
                1.0000001192092896
            ],
            "translation" : [
                9.5367431640625e-07,
                34.05078887939453,
                7.152557373046875e-07
            ]
        },
        {
            "children" : [
                8
            ],
            "name" : "Bip001 R Calf",
            "rotation" : [
                0.017546433955430984,
                -0.08769203722476959,
                -0.287046879529953,
                0.9537328481674194
            ],
            "scale" : [
                1,
                1,
                1.0000001192092896
            ],
            "translation" : [
                -9.5367431640625e-07,
                54.71451187133789,
                -4.231929779052734e-06
            ]
        },
        {
            "children" : [
                9
            ],
            "name" : "Bip001 R Thigh",
            "rotation" : [
                -0.05531369149684906,
                -0.99490886926651,
                -0.04020146280527115,
                0.07403124123811722
            ],
            "scale" : [
                1.0000001192092896,
                1.0000001192092896,
                1
            ],
            "translation" : [
                -0.020399795845150948,
                31.386795043945312,
                -54.29881286621094
            ]
        },
        {
            "name" : "Bip001 R Hand",
            "rotation" : [
                1.8381761890395865e-08,
                -0.17362356185913086,
                9.456854854761332e-09,
                0.9848120808601379
            ],
            "translation" : [
                -2.086162567138672e-06,
                46.69783401489258,
                -4.775822162628174e-06
            ]
        },
        {
            "children" : [
                11
            ],
            "name" : "Bip001 R Forearm",
            "rotation" : [
                0.007890356704592705,
                0.0041694119572639465,
                -0.0965799018740654,
                0.9952852725982666
            ],
            "scale" : [
                0.9999999403953552,
                0.9999999403953552,
                1
            ],
            "translation" : [
                0,
                53.55778884887695,
                -6.352551281452179e-06
            ]
        },
        {
            "children" : [
                12
            ],
            "name" : "Bip001 R UpperArm",
            "rotation" : [
                0.3173980712890625,
                -0.010740041732788086,
                0.028217878192663193,
                0.9478116631507874
            ],
            "scale" : [
                1.0000001192092896,
                0.9999999403953552,
                1
            ],
            "translation" : [
                2.2737367544323206e-12,
                56.695098876953125,
                -9.090473440664937e-08
            ]
        },
        {
            "children" : [
                13
            ],
            "name" : "Bip001 R Clavicle",
            "rotation" : [
                -0.0006604581722058356,
                -0.7071064114570618,
                0.7071065306663513,
                0.0006616744212806225
            ],
            "scale" : [
                0.9999999403953552,
                0.9999997615814209,
                0.9999999403953552
            ],
            "translation" : [
                -0.019538313150405884,
                5.059723377227783,
                -24.134401321411133
            ]
        },
        {
            "name" : "Bip001 Head",
            "rotation" : [
                -0.0005366530967876315,
                -0.9999971985816956,
                -1.26111694953579e-06,
                0.002349926857277751
            ],
            "scale" : [
                0.9999999403953552,
                0.9999999403953552,
                1
            ],
            "translation" : [
                0.039078619331121445,
                36.40946960449219,
                1.3382068786427226e-09
            ]
        },
        {
            "name" : "Bip001 L Hand",
            "rotation" : [
                -3.063134457192973e-08,
                0.1736237108707428,
                -2.08050821015604e-08,
                0.9848120808601379
            ],
            "scale" : [
                1,
                1,
                0.9999999403953552
            ],
            "translation" : [
                -1.7881393432617188e-06,
                46.69780349731445,
                1.3964250683784485e-05
            ]
        },
        {
            "children" : [
                16
            ],
            "name" : "Bip001 L Forearm",
            "rotation" : [
                -0.007890317589044571,
                -0.004169499035924673,
                -0.09657976031303406,
                0.9952852725982666
            ],
            "scale" : [
                0.9999998807907104,
                1,
                0.9999999403953552
            ],
            "translation" : [
                4.76837158203125e-07,
                53.55779266357422,
                -9.663403034210205e-06
            ]
        },
        {
            "children" : [
                17
            ],
            "name" : "Bip001 L UpperArm",
            "rotation" : [
                -0.3173980712890625,
                0.010740951634943485,
                0.02821711078286171,
                0.9478116631507874
            ],
            "scale" : [
                1.0000001192092896,
                0.9999999403953552,
                1
            ],
            "translation" : [
                1.8189894035458565e-11,
                56.695098876953125,
                -9.09080313249433e-08
            ]
        },
        {
            "children" : [
                18
            ],
            "name" : "Bip001 L Clavicle",
            "rotation" : [
                0.0006617106264457107,
                0.7071064114570618,
                0.7071065306663513,
                0.0006604943191632628
            ],
            "scale" : [
                0.9999999403953552,
                0.9999997615814209,
                0.9999999403953552
            ],
            "translation" : [
                -0.019540421664714813,
                5.059722423553467,
                24.134401321411133
            ]
        },
        {
            "children" : [
                14,
                15,
                19
            ],
            "name" : "Bip001 Neck",
            "rotation" : [
                -3.5300099648916117e-11,
                -1.515542726038266e-11,
                0.001030408195219934,
                0.999999463558197
            ],
            "scale" : [
                0.9999999403953552,
                1,
                1
            ],
            "translation" : [
                -9.31356547440032e-10,
                29.317434310913086,
                1.0436096431476471e-14
            ]
        },
        {
            "children" : [
                20
            ],
            "name" : "Bip001 Spine1",
            "rotation" : [
                6.942029529000138e-08,
                -2.1231964103529677e-11,
                -0.9999998211860657,
                0.0006039097206667066
            ],
            "scale" : [
                0.9999999403953552,
                0.9999999403953552,
                1
            ],
            "translation" : [
                0.04100986570119858,
                -29.317277908325195,
                4.288877697433691e-09
            ]
        },
        {
            "children" : [
                6,
                10,
                21
            ],
            "name" : "Bip001 Spine",
            "rotation" : [
                0.8420661687850952,
                -0.5393742322921753,
                -2.2857331583026053e-09,
                4.072162340662544e-08
            ],
            "scale" : [
                1,
                1,
                0.9999999403953552
            ],
            "translation" : [
                28.519620895385742,
                13.105772972106934,
                -3.007803343280102e-06
            ]
        },
        {
            "children" : [
                2,
                22
            ],
            "name" : "Bip001 Pelvis",
            "rotation" : [
                -0.37738749384880066,
                -0.5941977500915527,
                0.38619592785835266,
                0.5961211919784546
            ],
            "scale" : [
                1,
                0.9999998807907104,
                0.9999999403953552
            ],
            "translation" : [
                6.067934776865513e-08,
                -7.629384981555631e-06,
                -9.689946761648471e-12
            ]
        },
        {
            "children" : [
                23
            ],
            "name" : "Bip001",
            "rotation" : [
                -2.0295794456615113e-05,
                -0.004508006852120161,
                -0.004508006852120161,
                0.9999796748161316
            ],
            "translation" : [
                0,
                110.9094009399414,
                0
            ]
        },
        {
            "mesh" : 0,
            "name" : "model_cow",
            "skin" : 0
        },
        {
            "children" : [
                25,
                24
            ],
            "name" : "Armature",
            "scale" : [
                0.009999999776482582,
                0.009999999776482582,
                0.009999999776482582
            ]
        }
    ],
    "materials" : [
        {
            "doubleSided" : true,
            "name" : "model_cow",
            "pbrMetallicRoughness" : {
                "baseColorTexture" : {
                    "index" : 0
                },
                "metallicFactor" : 0,
                "roughnessFactor" : 0.5
            }
        }
    ],
    "meshes" : [
        {
            "name" : "model_cow",
            "primitives" : [
                {
                    "attributes" : {
                        "POSITION" : 0,
                        "NORMAL" : 1,
                        "TEXCOORD_0" : 2,
                        "JOINTS_0" : 3,
                        "WEIGHTS_0" : 4
                    },
                    "indices" : 5,
                    "material" : 0
                }
            ]
        }
    ],
    "textures" : [
        {
            "sampler" : 0,
            "source" : 0
        }
    ],
    "images" : [
        {
            "mimeType" : "image/jpeg",
            "name" : "model_cow",
            "uri" : "model_cow.jpg"
        }
    ],
    "skins" : [
        {
            "inverseBindMatrices" : 6,
            "joints" : [
                24,
                23,
                2,
                1,
                0,
                22,
                6,
                5,
                4,
                3,
                10,
                9,
                8,
                7,
                21,
                20,
                14,
                13,
                12,
                11,
                15,
                19,
                18,
                17,
                16
            ],
            "name" : "Armature"
        }
    ],
    "accessors" : [
        {
            "bufferView" : 0,
            "componentType" : 5126,
            "count" : 2570,
            "max" : [
                1.925484538078308,
                4.1151909828186035,
                1.1243687868118286
            ],
            "min" : [
                -1.9254734516143799,
                0.00015634999726898968,
                -1.3812870979309082
            ],
            "type" : "VEC3"
        },
        {
            "bufferView" : 1,
            "componentType" : 5126,
            "count" : 2570,
            "type" : "VEC3"
        },
        {
            "bufferView" : 2,
            "componentType" : 5126,
            "count" : 2570,
            "type" : "VEC2"
        },
        {
            "bufferView" : 3,
            "componentType" : 5121,
            "count" : 2570,
            "type" : "VEC4"
        },
        {
            "bufferView" : 4,
            "componentType" : 5126,
            "count" : 2570,
            "type" : "VEC4"
        },
        {
            "bufferView" : 5,
            "componentType" : 5123,
            "count" : 12072,
            "type" : "SCALAR"
        },
        {
            "bufferView" : 6,
            "componentType" : 5126,
            "count" : 25,
            "type" : "MAT4"
        }
    ],
    "bufferViews" : [
        {
            "buffer" : 0,
            "byteLength" : 30840,
            "byteOffset" : 0
        },
        {
            "buffer" : 0,
            "byteLength" : 30840,
            "byteOffset" : 30840
        },
        {
            "buffer" : 0,
            "byteLength" : 20560,
            "byteOffset" : 61680
        },
        {
            "buffer" : 0,
            "byteLength" : 10280,
            "byteOffset" : 82240
        },
        {
            "buffer" : 0,
            "byteLength" : 41120,
            "byteOffset" : 92520
        },
        {
            "buffer" : 0,
            "byteLength" : 24144,
            "byteOffset" : 133640
        },
        {
            "buffer" : 0,
            "byteLength" : 1600,
            "byteOffset" : 157784
        }
    ],
    "samplers" : [
        {
            "magFilter" : 9729,
            "minFilter" : 9987
        }
    ],
    "buffers" : [
        {
            "byteLength" : 159384,
            "uri" : "model_cow.bin"
        }
    ]
}
